<mxfile host="app.diagrams.net" modified="2024-04-23T17:41:54.649Z" agent="Mozilla/5.0 (Macintosh; Intel Mac OS X 10_15_7) AppleWebKit/537.36 (KHTML, like Gecko) Chrome/124.0.0.0 Safari/537.36" etag="dZmnBvXvsHBqv8BmI4hW" version="24.2.3" type="device">
  <diagram name="Page-1" id="PgNjhU1LjDGuAxVTJysv">
    <mxGraphModel dx="5064" dy="2558" grid="0" gridSize="10" guides="1" tooltips="1" connect="1" arrows="1" fold="1" page="1" pageScale="1" pageWidth="1169" pageHeight="827" math="0" shadow="0">
      <root>
        <mxCell id="0" />
        <mxCell id="1" parent="0" />
        <mxCell id="iZ8uWK1BLbyBL1zNR7Qy-105" value="" style="rounded=1;whiteSpace=wrap;html=1;fillColor=none;" vertex="1" parent="1">
          <mxGeometry x="-1042" y="-765.5" width="397" height="694" as="geometry" />
        </mxCell>
        <mxCell id="iZ8uWK1BLbyBL1zNR7Qy-10" value="" style="rounded=1;whiteSpace=wrap;html=1;fillColor=none;" vertex="1" parent="1">
          <mxGeometry x="-2150" y="-768" width="397" height="672" as="geometry" />
        </mxCell>
        <mxCell id="iZ8uWK1BLbyBL1zNR7Qy-5" style="edgeStyle=orthogonalEdgeStyle;rounded=0;orthogonalLoop=1;jettySize=auto;html=1;exitX=0.5;exitY=1;exitDx=0;exitDy=0;entryX=0.5;entryY=0;entryDx=0;entryDy=0;" edge="1" parent="1" source="G8UXR2RvoSNgQStM8z7o-1" target="iZ8uWK1BLbyBL1zNR7Qy-2">
          <mxGeometry relative="1" as="geometry" />
        </mxCell>
        <mxCell id="G8UXR2RvoSNgQStM8z7o-1" value="" style="ellipse;html=1;shape=startState;fillColor=#000000;strokeColor=#ff0000;" parent="1" vertex="1">
          <mxGeometry x="-1970.1100000000001" y="-715" width="30" height="30" as="geometry" />
        </mxCell>
        <mxCell id="G8UXR2RvoSNgQStM8z7o-4" value="" style="ellipse;html=1;shape=endState;fillColor=#000000;strokeColor=#ff0000;" parent="1" vertex="1">
          <mxGeometry x="-1970" y="-155" width="30" height="30" as="geometry" />
        </mxCell>
        <mxCell id="iZ8uWK1BLbyBL1zNR7Qy-8" style="edgeStyle=orthogonalEdgeStyle;rounded=0;orthogonalLoop=1;jettySize=auto;html=1;exitX=0.5;exitY=1;exitDx=0;exitDy=0;entryX=0.5;entryY=0;entryDx=0;entryDy=0;" edge="1" parent="1" source="G8UXR2RvoSNgQStM8z7o-14" target="iZ8uWK1BLbyBL1zNR7Qy-4">
          <mxGeometry relative="1" as="geometry" />
        </mxCell>
        <mxCell id="G8UXR2RvoSNgQStM8z7o-14" value="Markiere alle nicht-Primzahlen per Array-Index mit FALSE&amp;nbsp;&lt;div&gt;&lt;br&gt;&lt;/div&gt;" style="whiteSpace=wrap;html=1;rounded=1;" parent="1" vertex="1">
          <mxGeometry x="-2043" y="-378" width="177" height="56" as="geometry" />
        </mxCell>
        <mxCell id="iZ8uWK1BLbyBL1zNR7Qy-6" style="edgeStyle=orthogonalEdgeStyle;rounded=0;orthogonalLoop=1;jettySize=auto;html=1;exitX=0.5;exitY=1;exitDx=0;exitDy=0;entryX=0.5;entryY=0;entryDx=0;entryDy=0;" edge="1" parent="1" source="iZ8uWK1BLbyBL1zNR7Qy-2" target="iZ8uWK1BLbyBL1zNR7Qy-3">
          <mxGeometry relative="1" as="geometry" />
        </mxCell>
        <mxCell id="iZ8uWK1BLbyBL1zNR7Qy-2" value="&lt;div&gt;Erstellen des Nummern-Arrays&lt;br&gt;&lt;/div&gt;&lt;b&gt;numbersFlagged = new boolean[number + 1]&lt;/b&gt;" style="rounded=1;whiteSpace=wrap;html=1;" vertex="1" parent="1">
          <mxGeometry x="-2089.37" y="-596" width="269.75" height="52" as="geometry" />
        </mxCell>
        <mxCell id="iZ8uWK1BLbyBL1zNR7Qy-7" style="edgeStyle=orthogonalEdgeStyle;rounded=0;orthogonalLoop=1;jettySize=auto;html=1;exitX=0.5;exitY=1;exitDx=0;exitDy=0;entryX=0.5;entryY=0;entryDx=0;entryDy=0;" edge="1" parent="1" source="iZ8uWK1BLbyBL1zNR7Qy-3" target="G8UXR2RvoSNgQStM8z7o-14">
          <mxGeometry relative="1" as="geometry" />
        </mxCell>
        <mxCell id="iZ8uWK1BLbyBL1zNR7Qy-3" value="&lt;div&gt;Initialisieren jedes Arrays-Index&lt;/div&gt;&lt;div&gt;mit TRUE&lt;/div&gt;&lt;div&gt;&lt;br&gt;&lt;/div&gt;" style="rounded=1;whiteSpace=wrap;html=1;" vertex="1" parent="1">
          <mxGeometry x="-2044" y="-492" width="178" height="56" as="geometry" />
        </mxCell>
        <mxCell id="iZ8uWK1BLbyBL1zNR7Qy-9" style="edgeStyle=orthogonalEdgeStyle;rounded=0;orthogonalLoop=1;jettySize=auto;html=1;exitX=0.5;exitY=1;exitDx=0;exitDy=0;entryX=0.5;entryY=0;entryDx=0;entryDy=0;" edge="1" parent="1" source="iZ8uWK1BLbyBL1zNR7Qy-4" target="G8UXR2RvoSNgQStM8z7o-4">
          <mxGeometry relative="1" as="geometry" />
        </mxCell>
        <mxCell id="iZ8uWK1BLbyBL1zNR7Qy-4" value="Ausgabe aller Primzahlen anhand des Wertes des Array-Index&lt;div&gt;&lt;br&gt;&lt;/div&gt;" style="whiteSpace=wrap;html=1;rounded=1;" vertex="1" parent="1">
          <mxGeometry x="-2062" y="-257" width="214" height="56" as="geometry" />
        </mxCell>
        <mxCell id="iZ8uWK1BLbyBL1zNR7Qy-34" value="" style="edgeStyle=orthogonalEdgeStyle;rounded=0;orthogonalLoop=1;jettySize=auto;html=1;" edge="1" parent="1" target="iZ8uWK1BLbyBL1zNR7Qy-2">
          <mxGeometry relative="1" as="geometry">
            <mxPoint x="-1954" y="-637" as="sourcePoint" />
          </mxGeometry>
        </mxCell>
        <mxCell id="iZ8uWK1BLbyBL1zNR7Qy-11" value="&lt;b style=&quot;font-size: 14px;&quot;&gt;Primzahlberechnung gemäß&amp;nbsp;&lt;/b&gt;&lt;div style=&quot;font-size: 14px;&quot;&gt;&lt;b style=&quot;font-size: 14px;&quot;&gt;&quot;Sieb des Eratosthenes&quot;&lt;/b&gt;&lt;/div&gt;" style="text;html=1;align=center;verticalAlign=middle;resizable=0;points=[];autosize=1;strokeColor=none;fillColor=none;fontSize=14;" vertex="1" parent="1">
          <mxGeometry x="-2059.5" y="-758" width="209" height="46" as="geometry" />
        </mxCell>
        <mxCell id="iZ8uWK1BLbyBL1zNR7Qy-17" value="" style="group" vertex="1" connectable="0" parent="1">
          <mxGeometry x="-1965" y="-453" width="19.79" height="15" as="geometry" />
        </mxCell>
        <mxCell id="iZ8uWK1BLbyBL1zNR7Qy-18" value="" style="endArrow=none;html=1;rounded=0;" edge="1" parent="iZ8uWK1BLbyBL1zNR7Qy-17">
          <mxGeometry width="50" height="50" relative="1" as="geometry">
            <mxPoint y="8.297115764519946" as="sourcePoint" />
            <mxPoint x="19.79" y="8.297115764519946" as="targetPoint" />
          </mxGeometry>
        </mxCell>
        <mxCell id="iZ8uWK1BLbyBL1zNR7Qy-19" value="" style="endArrow=none;html=1;rounded=0;" edge="1" parent="iZ8uWK1BLbyBL1zNR7Qy-17">
          <mxGeometry width="50" height="50" relative="1" as="geometry">
            <mxPoint x="9.895" as="sourcePoint" />
            <mxPoint x="9.895" y="15" as="targetPoint" />
          </mxGeometry>
        </mxCell>
        <mxCell id="iZ8uWK1BLbyBL1zNR7Qy-20" value="" style="endArrow=none;html=1;rounded=0;" edge="1" parent="iZ8uWK1BLbyBL1zNR7Qy-17">
          <mxGeometry width="50" height="50" relative="1" as="geometry">
            <mxPoint x="19.79" y="8.297115764519946" as="sourcePoint" />
            <mxPoint x="19.79" y="14.99863234355529" as="targetPoint" />
          </mxGeometry>
        </mxCell>
        <mxCell id="iZ8uWK1BLbyBL1zNR7Qy-21" value="" style="endArrow=none;html=1;rounded=0;" edge="1" parent="iZ8uWK1BLbyBL1zNR7Qy-17">
          <mxGeometry width="50" height="50" relative="1" as="geometry">
            <mxPoint y="8.297115764519946" as="sourcePoint" />
            <mxPoint y="14.99863234355529" as="targetPoint" />
          </mxGeometry>
        </mxCell>
        <mxCell id="iZ8uWK1BLbyBL1zNR7Qy-22" value="" style="group" vertex="1" connectable="0" parent="1">
          <mxGeometry x="-1964" y="-339" width="19.79" height="15" as="geometry" />
        </mxCell>
        <mxCell id="iZ8uWK1BLbyBL1zNR7Qy-23" value="" style="endArrow=none;html=1;rounded=0;" edge="1" parent="iZ8uWK1BLbyBL1zNR7Qy-22">
          <mxGeometry width="50" height="50" relative="1" as="geometry">
            <mxPoint y="8.297115764519946" as="sourcePoint" />
            <mxPoint x="19.79" y="8.297115764519946" as="targetPoint" />
          </mxGeometry>
        </mxCell>
        <mxCell id="iZ8uWK1BLbyBL1zNR7Qy-24" value="" style="endArrow=none;html=1;rounded=0;" edge="1" parent="iZ8uWK1BLbyBL1zNR7Qy-22">
          <mxGeometry width="50" height="50" relative="1" as="geometry">
            <mxPoint x="9.895" as="sourcePoint" />
            <mxPoint x="9.895" y="15" as="targetPoint" />
          </mxGeometry>
        </mxCell>
        <mxCell id="iZ8uWK1BLbyBL1zNR7Qy-25" value="" style="endArrow=none;html=1;rounded=0;" edge="1" parent="iZ8uWK1BLbyBL1zNR7Qy-22">
          <mxGeometry width="50" height="50" relative="1" as="geometry">
            <mxPoint x="19.79" y="8.297115764519946" as="sourcePoint" />
            <mxPoint x="19.79" y="14.99863234355529" as="targetPoint" />
          </mxGeometry>
        </mxCell>
        <mxCell id="iZ8uWK1BLbyBL1zNR7Qy-26" value="" style="endArrow=none;html=1;rounded=0;" edge="1" parent="iZ8uWK1BLbyBL1zNR7Qy-22">
          <mxGeometry width="50" height="50" relative="1" as="geometry">
            <mxPoint y="8.297115764519946" as="sourcePoint" />
            <mxPoint y="14.99863234355529" as="targetPoint" />
          </mxGeometry>
        </mxCell>
        <mxCell id="iZ8uWK1BLbyBL1zNR7Qy-27" value="" style="group" vertex="1" connectable="0" parent="1">
          <mxGeometry x="-1964.4" y="-220" width="19.79" height="15" as="geometry" />
        </mxCell>
        <mxCell id="iZ8uWK1BLbyBL1zNR7Qy-28" value="" style="endArrow=none;html=1;rounded=0;" edge="1" parent="iZ8uWK1BLbyBL1zNR7Qy-27">
          <mxGeometry width="50" height="50" relative="1" as="geometry">
            <mxPoint y="8.297115764519946" as="sourcePoint" />
            <mxPoint x="19.79" y="8.297115764519946" as="targetPoint" />
          </mxGeometry>
        </mxCell>
        <mxCell id="iZ8uWK1BLbyBL1zNR7Qy-29" value="" style="endArrow=none;html=1;rounded=0;" edge="1" parent="iZ8uWK1BLbyBL1zNR7Qy-27">
          <mxGeometry width="50" height="50" relative="1" as="geometry">
            <mxPoint x="9.895" as="sourcePoint" />
            <mxPoint x="9.895" y="15" as="targetPoint" />
          </mxGeometry>
        </mxCell>
        <mxCell id="iZ8uWK1BLbyBL1zNR7Qy-30" value="" style="endArrow=none;html=1;rounded=0;" edge="1" parent="iZ8uWK1BLbyBL1zNR7Qy-27">
          <mxGeometry width="50" height="50" relative="1" as="geometry">
            <mxPoint x="19.79" y="8.297115764519946" as="sourcePoint" />
            <mxPoint x="19.79" y="14.99863234355529" as="targetPoint" />
          </mxGeometry>
        </mxCell>
        <mxCell id="iZ8uWK1BLbyBL1zNR7Qy-31" value="" style="endArrow=none;html=1;rounded=0;" edge="1" parent="iZ8uWK1BLbyBL1zNR7Qy-27">
          <mxGeometry width="50" height="50" relative="1" as="geometry">
            <mxPoint y="8.297115764519946" as="sourcePoint" />
            <mxPoint y="14.99863234355529" as="targetPoint" />
          </mxGeometry>
        </mxCell>
        <mxCell id="iZ8uWK1BLbyBL1zNR7Qy-33" value="&lt;div style=&quot;font-size: 14px;&quot;&gt;&lt;b style=&quot;font-size: 14px;&quot;&gt;Initialisieren jedes Arrays-Index&lt;/b&gt;&lt;/div&gt;&lt;div style=&quot;font-size: 14px;&quot;&gt;&lt;b style=&quot;font-size: 14px;&quot;&gt;mit TRUE&lt;/b&gt;&lt;/div&gt;&lt;div style=&quot;font-size: 14px;&quot;&gt;&lt;br style=&quot;text-wrap: wrap; font-size: 14px;&quot;&gt;&lt;/div&gt;" style="text;html=1;align=center;verticalAlign=middle;resizable=0;points=[];autosize=1;strokeColor=none;fillColor=none;fontSize=14;" vertex="1" parent="1">
          <mxGeometry x="-957.5" y="-751" width="228" height="62" as="geometry" />
        </mxCell>
        <mxCell id="iZ8uWK1BLbyBL1zNR7Qy-66" style="edgeStyle=orthogonalEdgeStyle;rounded=0;orthogonalLoop=1;jettySize=auto;html=1;exitX=0.5;exitY=1;exitDx=0;exitDy=0;entryX=0.5;entryY=0;entryDx=0;entryDy=0;" edge="1" parent="1" source="iZ8uWK1BLbyBL1zNR7Qy-36" target="iZ8uWK1BLbyBL1zNR7Qy-38">
          <mxGeometry relative="1" as="geometry" />
        </mxCell>
        <mxCell id="iZ8uWK1BLbyBL1zNR7Qy-36" value="" style="ellipse;html=1;shape=startState;fillColor=#000000;strokeColor=#ff0000;" vertex="1" parent="1">
          <mxGeometry x="-863.5" y="-696" width="30" height="30" as="geometry" />
        </mxCell>
        <mxCell id="iZ8uWK1BLbyBL1zNR7Qy-37" value="&lt;div&gt;Eingabe number&lt;/div&gt;" style="rounded=1;whiteSpace=wrap;html=1;" vertex="1" parent="1">
          <mxGeometry x="-2022.3" y="-662" width="134.38" height="32" as="geometry" />
        </mxCell>
        <mxCell id="iZ8uWK1BLbyBL1zNR7Qy-61" style="edgeStyle=orthogonalEdgeStyle;rounded=0;orthogonalLoop=1;jettySize=auto;html=1;exitX=0.5;exitY=1;exitDx=0;exitDy=0;entryX=0.5;entryY=0;entryDx=0;entryDy=0;" edge="1" parent="1" source="iZ8uWK1BLbyBL1zNR7Qy-38" target="iZ8uWK1BLbyBL1zNR7Qy-79">
          <mxGeometry relative="1" as="geometry">
            <mxPoint x="-818.2499999999998" y="-539" as="targetPoint" />
          </mxGeometry>
        </mxCell>
        <mxCell id="iZ8uWK1BLbyBL1zNR7Qy-38" value="&lt;div&gt;i = 2&lt;/div&gt;" style="rounded=1;whiteSpace=wrap;html=1;" vertex="1" parent="1">
          <mxGeometry x="-874.5899999999999" y="-627" width="52.19" height="28" as="geometry" />
        </mxCell>
        <mxCell id="iZ8uWK1BLbyBL1zNR7Qy-86" style="edgeStyle=orthogonalEdgeStyle;rounded=0;orthogonalLoop=1;jettySize=auto;html=1;exitX=0.5;exitY=0;exitDx=0;exitDy=0;entryX=1;entryY=0.5;entryDx=0;entryDy=0;" edge="1" parent="1" source="iZ8uWK1BLbyBL1zNR7Qy-51" target="iZ8uWK1BLbyBL1zNR7Qy-79">
          <mxGeometry relative="1" as="geometry" />
        </mxCell>
        <mxCell id="iZ8uWK1BLbyBL1zNR7Qy-51" value="&lt;div&gt;i = i+1&lt;/div&gt;" style="rounded=1;whiteSpace=wrap;html=1;" vertex="1" parent="1">
          <mxGeometry x="-785.5" y="-486" width="63" height="25" as="geometry" />
        </mxCell>
        <mxCell id="iZ8uWK1BLbyBL1zNR7Qy-52" value="" style="ellipse;html=1;shape=endState;fillColor=#000000;strokeColor=#ff0000;" vertex="1" parent="1">
          <mxGeometry x="-1036.5" y="-537.5" width="30" height="30" as="geometry" />
        </mxCell>
        <mxCell id="iZ8uWK1BLbyBL1zNR7Qy-54" value="[sonst]" style="edgeLabel;html=1;align=center;verticalAlign=middle;resizable=0;points=[];" vertex="1" connectable="0" parent="1">
          <mxGeometry x="-822.4035483870969" y="-476" as="geometry">
            <mxPoint x="-90" y="-59" as="offset" />
          </mxGeometry>
        </mxCell>
        <mxCell id="iZ8uWK1BLbyBL1zNR7Qy-59" style="edgeStyle=orthogonalEdgeStyle;rounded=0;orthogonalLoop=1;jettySize=auto;html=1;exitX=0;exitY=0.5;exitDx=0;exitDy=0;entryX=1;entryY=0.5;entryDx=0;entryDy=0;" edge="1" parent="1" target="iZ8uWK1BLbyBL1zNR7Qy-52">
          <mxGeometry relative="1" as="geometry">
            <mxPoint x="-864.9999999999998" y="-522.5" as="sourcePoint" />
            <mxPoint x="-977.5" y="-522" as="targetPoint" />
          </mxGeometry>
        </mxCell>
        <mxCell id="iZ8uWK1BLbyBL1zNR7Qy-84" style="edgeStyle=orthogonalEdgeStyle;rounded=0;orthogonalLoop=1;jettySize=auto;html=1;exitX=0.5;exitY=1;exitDx=0;exitDy=0;entryX=0.5;entryY=0;entryDx=0;entryDy=0;" edge="1" parent="1" source="iZ8uWK1BLbyBL1zNR7Qy-79" target="iZ8uWK1BLbyBL1zNR7Qy-83">
          <mxGeometry relative="1" as="geometry" />
        </mxCell>
        <mxCell id="iZ8uWK1BLbyBL1zNR7Qy-79" value="" style="rhombus;whiteSpace=wrap;html=1;" vertex="1" parent="1">
          <mxGeometry x="-865" y="-539" width="33" height="33" as="geometry" />
        </mxCell>
        <mxCell id="iZ8uWK1BLbyBL1zNR7Qy-82" value="&lt;span style=&quot;font-size: 11px;&quot;&gt;[i+i &amp;lt; number]&lt;/span&gt;" style="text;html=1;align=center;verticalAlign=middle;resizable=0;points=[];autosize=1;strokeColor=none;fillColor=none;" vertex="1" parent="1">
          <mxGeometry x="-931.5" y="-493" width="85" height="26" as="geometry" />
        </mxCell>
        <mxCell id="iZ8uWK1BLbyBL1zNR7Qy-85" style="edgeStyle=orthogonalEdgeStyle;rounded=0;orthogonalLoop=1;jettySize=auto;html=1;exitX=1;exitY=0.5;exitDx=0;exitDy=0;entryX=0.5;entryY=1;entryDx=0;entryDy=0;" edge="1" parent="1" source="iZ8uWK1BLbyBL1zNR7Qy-83" target="iZ8uWK1BLbyBL1zNR7Qy-51">
          <mxGeometry relative="1" as="geometry" />
        </mxCell>
        <mxCell id="iZ8uWK1BLbyBL1zNR7Qy-88" style="edgeStyle=orthogonalEdgeStyle;rounded=0;orthogonalLoop=1;jettySize=auto;html=1;exitX=0.5;exitY=1;exitDx=0;exitDy=0;" edge="1" parent="1" source="iZ8uWK1BLbyBL1zNR7Qy-83">
          <mxGeometry relative="1" as="geometry">
            <mxPoint x="-848.6428571428571" y="-335.1428571428571" as="targetPoint" />
          </mxGeometry>
        </mxCell>
        <mxCell id="iZ8uWK1BLbyBL1zNR7Qy-83" value="" style="rhombus;whiteSpace=wrap;html=1;" vertex="1" parent="1">
          <mxGeometry x="-864.99" y="-435" width="33" height="33" as="geometry" />
        </mxCell>
        <mxCell id="iZ8uWK1BLbyBL1zNR7Qy-87" value="[sonst]" style="text;html=1;align=center;verticalAlign=middle;resizable=0;points=[];autosize=1;strokeColor=none;fillColor=none;" vertex="1" parent="1">
          <mxGeometry x="-825.5" y="-443" width="53" height="26" as="geometry" />
        </mxCell>
        <mxCell id="iZ8uWK1BLbyBL1zNR7Qy-90" value="&lt;span style=&quot;color: rgb(0, 0, 0); font-family: Helvetica; font-size: 11px; font-style: normal; font-variant-ligatures: normal; font-variant-caps: normal; font-weight: 400; letter-spacing: normal; orphans: 2; text-align: center; text-indent: 0px; text-transform: none; widows: 2; word-spacing: 0px; -webkit-text-stroke-width: 0px; white-space: nowrap; background-color: rgb(255, 255, 255); text-decoration-thickness: initial; text-decoration-style: initial; text-decoration-color: initial; display: inline !important; float: none;&quot;&gt;[numbersFlagged[i] == true]&lt;/span&gt;" style="text;whiteSpace=wrap;html=1;" vertex="1" parent="1">
          <mxGeometry x="-912.0028571428571" y="-393.9957142857142" width="163" height="36" as="geometry" />
        </mxCell>
        <mxCell id="iZ8uWK1BLbyBL1zNR7Qy-92" style="edgeStyle=orthogonalEdgeStyle;rounded=0;orthogonalLoop=1;jettySize=auto;html=1;exitX=0.5;exitY=1;exitDx=0;exitDy=0;" edge="1" parent="1" source="iZ8uWK1BLbyBL1zNR7Qy-91">
          <mxGeometry relative="1" as="geometry">
            <mxPoint x="-847.9285714285713" y="-258" as="targetPoint" />
          </mxGeometry>
        </mxCell>
        <mxCell id="iZ8uWK1BLbyBL1zNR7Qy-91" value="&lt;div&gt;j = i + i&lt;/div&gt;" style="rounded=1;whiteSpace=wrap;html=1;" vertex="1" parent="1">
          <mxGeometry x="-874.5899999999999" y="-333" width="53.38" height="28" as="geometry" />
        </mxCell>
        <mxCell id="iZ8uWK1BLbyBL1zNR7Qy-94" style="edgeStyle=orthogonalEdgeStyle;rounded=0;orthogonalLoop=1;jettySize=auto;html=1;exitX=0;exitY=0.5;exitDx=0;exitDy=0;entryX=0;entryY=0.5;entryDx=0;entryDy=0;" edge="1" parent="1" source="iZ8uWK1BLbyBL1zNR7Qy-93" target="iZ8uWK1BLbyBL1zNR7Qy-83">
          <mxGeometry relative="1" as="geometry">
            <Array as="points">
              <mxPoint x="-998.5" y="-240" />
              <mxPoint x="-998.5" y="-418" />
            </Array>
          </mxGeometry>
        </mxCell>
        <mxCell id="iZ8uWK1BLbyBL1zNR7Qy-99" style="edgeStyle=orthogonalEdgeStyle;rounded=0;orthogonalLoop=1;jettySize=auto;html=1;exitX=0.5;exitY=1;exitDx=0;exitDy=0;" edge="1" parent="1" source="iZ8uWK1BLbyBL1zNR7Qy-93">
          <mxGeometry relative="1" as="geometry">
            <mxPoint x="-848.6428571428571" y="-165.1428571428571" as="targetPoint" />
          </mxGeometry>
        </mxCell>
        <mxCell id="iZ8uWK1BLbyBL1zNR7Qy-93" value="" style="rhombus;whiteSpace=wrap;html=1;" vertex="1" parent="1">
          <mxGeometry x="-865" y="-257" width="33" height="33" as="geometry" />
        </mxCell>
        <mxCell id="iZ8uWK1BLbyBL1zNR7Qy-95" value="&lt;span style=&quot;color: rgba(0, 0, 0, 0); font-family: monospace; font-size: 0px; text-align: start;&quot;&gt;[]%3CmxGraphModel%3E%3Croot%3E%3CmxCell%20id%3D%220%22%2F%3E%3CmxCell%20id%3D%221%22%20parent%3D%220%22%2F%3E%3CmxCell%20id%3D%222%22%20value%3D%22%22%20style%3D%22rhombus%3BwhiteSpace%3Dwrap%3Bhtml%3D1%3B%22%20vertex%3D%221%22%20parent%3D%221%22%3E%3CmxGeometry%20x%3D%22-268%22%20y%3D%22186%22%20width%3D%2233%22%20height%3D%2233%22%20as%3D%22geometry%22%2F%3E%3C%2FmxCell%3E%3C%2Froot%3E%3C%2FmxGraphModel%3E&lt;/span&gt;" style="text;html=1;align=center;verticalAlign=middle;resizable=0;points=[];autosize=1;strokeColor=none;fillColor=none;" vertex="1" parent="1">
          <mxGeometry x="-930.5" y="-295" width="18" height="26" as="geometry" />
        </mxCell>
        <mxCell id="iZ8uWK1BLbyBL1zNR7Qy-98" value="[sonst]" style="text;html=1;align=center;verticalAlign=middle;resizable=0;points=[];autosize=1;strokeColor=none;fillColor=none;" vertex="1" parent="1">
          <mxGeometry x="-937.5" y="-271" width="53" height="26" as="geometry" />
        </mxCell>
        <mxCell id="iZ8uWK1BLbyBL1zNR7Qy-100" value="[j &amp;lt;= number]" style="text;html=1;align=center;verticalAlign=middle;resizable=0;points=[];autosize=1;strokeColor=none;fillColor=none;" vertex="1" parent="1">
          <mxGeometry x="-846.5" y="-215" width="89" height="26" as="geometry" />
        </mxCell>
        <mxCell id="iZ8uWK1BLbyBL1zNR7Qy-103" style="edgeStyle=orthogonalEdgeStyle;rounded=0;orthogonalLoop=1;jettySize=auto;html=1;exitX=0.5;exitY=1;exitDx=0;exitDy=0;" edge="1" parent="1" source="iZ8uWK1BLbyBL1zNR7Qy-101" target="iZ8uWK1BLbyBL1zNR7Qy-102">
          <mxGeometry relative="1" as="geometry" />
        </mxCell>
        <mxCell id="iZ8uWK1BLbyBL1zNR7Qy-101" value="Setzt das Array Element auf FALSE" style="rounded=1;whiteSpace=wrap;html=1;" vertex="1" parent="1">
          <mxGeometry x="-908.5" y="-159" width="123" height="32" as="geometry" />
        </mxCell>
        <mxCell id="iZ8uWK1BLbyBL1zNR7Qy-104" style="edgeStyle=orthogonalEdgeStyle;rounded=0;orthogonalLoop=1;jettySize=auto;html=1;exitX=0.5;exitY=0;exitDx=0;exitDy=0;entryX=1;entryY=0.5;entryDx=0;entryDy=0;" edge="1" parent="1" source="iZ8uWK1BLbyBL1zNR7Qy-102" target="iZ8uWK1BLbyBL1zNR7Qy-93">
          <mxGeometry relative="1" as="geometry" />
        </mxCell>
        <mxCell id="iZ8uWK1BLbyBL1zNR7Qy-102" value="&lt;div&gt;j = j + i&lt;/div&gt;" style="rounded=1;whiteSpace=wrap;html=1;" vertex="1" parent="1">
          <mxGeometry x="-739.8800000000001" y="-204" width="84.38" height="25" as="geometry" />
        </mxCell>
        <mxCell id="iZ8uWK1BLbyBL1zNR7Qy-106" value="&lt;div style=&quot;font-size: 14px;&quot;&gt;&lt;font style=&quot;font-size: 14px;&quot;&gt;&lt;b&gt;Initialisieren jedes Arrays-Index&lt;/b&gt;&lt;/font&gt;&lt;/div&gt;&lt;div style=&quot;font-size: 14px;&quot;&gt;&lt;font style=&quot;font-size: 14px;&quot;&gt;&lt;b&gt;mit TRUE&lt;/b&gt;&lt;/font&gt;&lt;/div&gt;&lt;div style=&quot;font-size: 14px;&quot;&gt;&lt;br style=&quot;text-wrap: wrap;&quot;&gt;&lt;/div&gt;" style="text;html=1;align=center;verticalAlign=middle;resizable=0;points=[];autosize=1;strokeColor=none;fillColor=none;" vertex="1" parent="1">
          <mxGeometry x="-1592" y="-696.5" width="228" height="62" as="geometry" />
        </mxCell>
        <mxCell id="iZ8uWK1BLbyBL1zNR7Qy-107" style="edgeStyle=orthogonalEdgeStyle;rounded=0;orthogonalLoop=1;jettySize=auto;html=1;exitX=0.5;exitY=1;exitDx=0;exitDy=0;entryX=0.5;entryY=0;entryDx=0;entryDy=0;" edge="1" parent="1" source="iZ8uWK1BLbyBL1zNR7Qy-108" target="iZ8uWK1BLbyBL1zNR7Qy-110">
          <mxGeometry relative="1" as="geometry" />
        </mxCell>
        <mxCell id="iZ8uWK1BLbyBL1zNR7Qy-108" value="" style="ellipse;html=1;shape=startState;fillColor=#000000;strokeColor=#ff0000;" vertex="1" parent="1">
          <mxGeometry x="-1496" y="-640.5" width="30" height="30" as="geometry" />
        </mxCell>
        <mxCell id="iZ8uWK1BLbyBL1zNR7Qy-109" style="edgeStyle=orthogonalEdgeStyle;rounded=0;orthogonalLoop=1;jettySize=auto;html=1;exitX=0.5;exitY=1;exitDx=0;exitDy=0;entryX=0.5;entryY=0;entryDx=0;entryDy=0;" edge="1" parent="1" source="iZ8uWK1BLbyBL1zNR7Qy-110" target="iZ8uWK1BLbyBL1zNR7Qy-117">
          <mxGeometry relative="1" as="geometry">
            <mxPoint x="-1450.7499999999998" y="-483.5" as="targetPoint" />
          </mxGeometry>
        </mxCell>
        <mxCell id="iZ8uWK1BLbyBL1zNR7Qy-110" value="&lt;div&gt;i = 2&lt;/div&gt;" style="rounded=1;whiteSpace=wrap;html=1;" vertex="1" parent="1">
          <mxGeometry x="-1507.09" y="-571.5" width="52.19" height="28" as="geometry" />
        </mxCell>
        <mxCell id="iZ8uWK1BLbyBL1zNR7Qy-111" style="edgeStyle=orthogonalEdgeStyle;rounded=0;orthogonalLoop=1;jettySize=auto;html=1;exitX=0.5;exitY=0;exitDx=0;exitDy=0;entryX=1;entryY=0.5;entryDx=0;entryDy=0;" edge="1" parent="1" source="iZ8uWK1BLbyBL1zNR7Qy-112" target="iZ8uWK1BLbyBL1zNR7Qy-117">
          <mxGeometry relative="1" as="geometry" />
        </mxCell>
        <mxCell id="iZ8uWK1BLbyBL1zNR7Qy-112" value="&lt;div&gt;i = i+1&lt;/div&gt;" style="rounded=1;whiteSpace=wrap;html=1;" vertex="1" parent="1">
          <mxGeometry x="-1296.5" y="-434.5" width="63" height="25" as="geometry" />
        </mxCell>
        <mxCell id="iZ8uWK1BLbyBL1zNR7Qy-113" value="" style="ellipse;html=1;shape=endState;fillColor=#000000;strokeColor=#ff0000;" vertex="1" parent="1">
          <mxGeometry x="-1669" y="-482" width="30" height="30" as="geometry" />
        </mxCell>
        <mxCell id="iZ8uWK1BLbyBL1zNR7Qy-114" value="[sonst]" style="edgeLabel;html=1;align=center;verticalAlign=middle;resizable=0;points=[];" vertex="1" connectable="0" parent="1">
          <mxGeometry x="-1454.9035483870969" y="-420.5" as="geometry">
            <mxPoint x="-90" y="-59" as="offset" />
          </mxGeometry>
        </mxCell>
        <mxCell id="iZ8uWK1BLbyBL1zNR7Qy-115" style="edgeStyle=orthogonalEdgeStyle;rounded=0;orthogonalLoop=1;jettySize=auto;html=1;exitX=0;exitY=0.5;exitDx=0;exitDy=0;entryX=1;entryY=0.5;entryDx=0;entryDy=0;" edge="1" parent="1" target="iZ8uWK1BLbyBL1zNR7Qy-113">
          <mxGeometry relative="1" as="geometry">
            <mxPoint x="-1497.4999999999998" y="-467" as="sourcePoint" />
            <mxPoint x="-1610" y="-466.5" as="targetPoint" />
          </mxGeometry>
        </mxCell>
        <mxCell id="iZ8uWK1BLbyBL1zNR7Qy-116" style="edgeStyle=orthogonalEdgeStyle;rounded=0;orthogonalLoop=1;jettySize=auto;html=1;exitX=0.5;exitY=1;exitDx=0;exitDy=0;entryX=0.5;entryY=0;entryDx=0;entryDy=0;" edge="1" parent="1" source="iZ8uWK1BLbyBL1zNR7Qy-117" target="iZ8uWK1BLbyBL1zNR7Qy-120">
          <mxGeometry relative="1" as="geometry" />
        </mxCell>
        <mxCell id="iZ8uWK1BLbyBL1zNR7Qy-117" value="" style="rhombus;whiteSpace=wrap;html=1;" vertex="1" parent="1">
          <mxGeometry x="-1497.5" y="-483.5" width="33" height="33" as="geometry" />
        </mxCell>
        <mxCell id="iZ8uWK1BLbyBL1zNR7Qy-118" value="&lt;span style=&quot;font-size: 11px;&quot;&gt;[i+i &amp;lt; number]&lt;/span&gt;" style="text;html=1;align=center;verticalAlign=middle;resizable=0;points=[];autosize=1;strokeColor=none;fillColor=none;" vertex="1" parent="1">
          <mxGeometry x="-1564" y="-437.5" width="85" height="26" as="geometry" />
        </mxCell>
        <mxCell id="iZ8uWK1BLbyBL1zNR7Qy-126" style="edgeStyle=orthogonalEdgeStyle;rounded=0;orthogonalLoop=1;jettySize=auto;html=1;exitX=0.5;exitY=1;exitDx=0;exitDy=0;entryX=0.5;entryY=0;entryDx=0;entryDy=0;" edge="1" parent="1" source="iZ8uWK1BLbyBL1zNR7Qy-120" target="iZ8uWK1BLbyBL1zNR7Qy-122">
          <mxGeometry relative="1" as="geometry" />
        </mxCell>
        <mxCell id="iZ8uWK1BLbyBL1zNR7Qy-130" style="edgeStyle=orthogonalEdgeStyle;rounded=0;orthogonalLoop=1;jettySize=auto;html=1;exitX=1;exitY=0.5;exitDx=0;exitDy=0;entryX=0;entryY=0.5;entryDx=0;entryDy=0;" edge="1" parent="1" source="iZ8uWK1BLbyBL1zNR7Qy-120" target="iZ8uWK1BLbyBL1zNR7Qy-128">
          <mxGeometry relative="1" as="geometry" />
        </mxCell>
        <mxCell id="iZ8uWK1BLbyBL1zNR7Qy-120" value="" style="rhombus;whiteSpace=wrap;html=1;" vertex="1" parent="1">
          <mxGeometry x="-1497.49" y="-379.5" width="33" height="33" as="geometry" />
        </mxCell>
        <mxCell id="iZ8uWK1BLbyBL1zNR7Qy-121" value="[sonst]" style="text;html=1;align=center;verticalAlign=middle;resizable=0;points=[];autosize=1;strokeColor=none;fillColor=none;" vertex="1" parent="1">
          <mxGeometry x="-1464.49" y="-391.5" width="53" height="26" as="geometry" />
        </mxCell>
        <mxCell id="iZ8uWK1BLbyBL1zNR7Qy-125" style="edgeStyle=orthogonalEdgeStyle;rounded=0;orthogonalLoop=1;jettySize=auto;html=1;exitX=1;exitY=0.5;exitDx=0;exitDy=0;entryX=0.5;entryY=1;entryDx=0;entryDy=0;" edge="1" parent="1" source="iZ8uWK1BLbyBL1zNR7Qy-122" target="iZ8uWK1BLbyBL1zNR7Qy-123">
          <mxGeometry relative="1" as="geometry">
            <mxPoint x="-1298" y="-283.5" as="sourcePoint" />
          </mxGeometry>
        </mxCell>
        <mxCell id="iZ8uWK1BLbyBL1zNR7Qy-122" value="Setzt das Array Element auf TRUE" style="rounded=1;whiteSpace=wrap;html=1;" vertex="1" parent="1">
          <mxGeometry x="-1542.49" y="-283.5" width="123" height="32" as="geometry" />
        </mxCell>
        <mxCell id="iZ8uWK1BLbyBL1zNR7Qy-124" style="edgeStyle=orthogonalEdgeStyle;rounded=0;orthogonalLoop=1;jettySize=auto;html=1;exitX=0.5;exitY=0;exitDx=0;exitDy=0;entryX=0.5;entryY=1;entryDx=0;entryDy=0;" edge="1" parent="1" source="iZ8uWK1BLbyBL1zNR7Qy-123" target="iZ8uWK1BLbyBL1zNR7Qy-112">
          <mxGeometry relative="1" as="geometry" />
        </mxCell>
        <mxCell id="iZ8uWK1BLbyBL1zNR7Qy-123" value="" style="rhombus;whiteSpace=wrap;html=1;" vertex="1" parent="1">
          <mxGeometry x="-1281.5" y="-381.5" width="33" height="33" as="geometry" />
        </mxCell>
        <mxCell id="iZ8uWK1BLbyBL1zNR7Qy-127" value="[i &amp;gt; 1]" style="text;html=1;align=center;verticalAlign=middle;resizable=0;points=[];autosize=1;strokeColor=none;fillColor=none;" vertex="1" parent="1">
          <mxGeometry x="-1524" y="-337.5" width="48" height="26" as="geometry" />
        </mxCell>
        <mxCell id="iZ8uWK1BLbyBL1zNR7Qy-128" value="Setzt das Array Element auf FALSE" style="rounded=1;whiteSpace=wrap;html=1;" vertex="1" parent="1">
          <mxGeometry x="-1406" y="-390.5" width="84.9" height="55" as="geometry" />
        </mxCell>
        <mxCell id="iZ8uWK1BLbyBL1zNR7Qy-133" style="edgeStyle=orthogonalEdgeStyle;rounded=0;orthogonalLoop=1;jettySize=auto;html=1;exitX=1;exitY=0.5;exitDx=0;exitDy=0;entryX=0.015;entryY=0.333;entryDx=0;entryDy=0;entryPerimeter=0;" edge="1" parent="1" source="iZ8uWK1BLbyBL1zNR7Qy-128" target="iZ8uWK1BLbyBL1zNR7Qy-123">
          <mxGeometry relative="1" as="geometry" />
        </mxCell>
        <mxCell id="iZ8uWK1BLbyBL1zNR7Qy-134" value="" style="rounded=1;whiteSpace=wrap;html=1;fillColor=none;" vertex="1" parent="1">
          <mxGeometry x="-1683" y="-709.5" width="468.5" height="516" as="geometry" />
        </mxCell>
        <mxCell id="iZ8uWK1BLbyBL1zNR7Qy-135" value="&lt;div style=&quot;&quot;&gt;&lt;div&gt;&lt;b&gt;Ausgabe aller Primzahlen anhand&amp;nbsp;&lt;/b&gt;&lt;/div&gt;&lt;div&gt;&lt;b&gt;des Wertes des Array-Index&lt;/b&gt;&lt;/div&gt;&lt;div&gt;&lt;br&gt;&lt;/div&gt;&lt;/div&gt;" style="text;html=1;align=center;verticalAlign=middle;resizable=0;points=[];autosize=1;strokeColor=none;fillColor=none;fontSize=14;" vertex="1" parent="1">
          <mxGeometry x="-415.5" y="-681.5" width="246" height="62" as="geometry" />
        </mxCell>
        <mxCell id="iZ8uWK1BLbyBL1zNR7Qy-136" style="edgeStyle=orthogonalEdgeStyle;rounded=0;orthogonalLoop=1;jettySize=auto;html=1;exitX=0.5;exitY=1;exitDx=0;exitDy=0;entryX=0.5;entryY=0;entryDx=0;entryDy=0;" edge="1" parent="1" source="iZ8uWK1BLbyBL1zNR7Qy-137" target="iZ8uWK1BLbyBL1zNR7Qy-139">
          <mxGeometry relative="1" as="geometry" />
        </mxCell>
        <mxCell id="iZ8uWK1BLbyBL1zNR7Qy-137" value="" style="ellipse;html=1;shape=startState;fillColor=#000000;strokeColor=#ff0000;" vertex="1" parent="1">
          <mxGeometry x="-312.5" y="-626.5" width="30" height="30" as="geometry" />
        </mxCell>
        <mxCell id="iZ8uWK1BLbyBL1zNR7Qy-138" style="edgeStyle=orthogonalEdgeStyle;rounded=0;orthogonalLoop=1;jettySize=auto;html=1;exitX=0.5;exitY=1;exitDx=0;exitDy=0;entryX=0.5;entryY=0;entryDx=0;entryDy=0;" edge="1" parent="1" source="iZ8uWK1BLbyBL1zNR7Qy-139" target="iZ8uWK1BLbyBL1zNR7Qy-146">
          <mxGeometry relative="1" as="geometry">
            <mxPoint x="-267.2499999999998" y="-469.5" as="targetPoint" />
          </mxGeometry>
        </mxCell>
        <mxCell id="iZ8uWK1BLbyBL1zNR7Qy-139" value="&lt;div&gt;i = 0&lt;/div&gt;" style="rounded=1;whiteSpace=wrap;html=1;" vertex="1" parent="1">
          <mxGeometry x="-323.59" y="-557.5" width="52.19" height="28" as="geometry" />
        </mxCell>
        <mxCell id="iZ8uWK1BLbyBL1zNR7Qy-140" style="edgeStyle=orthogonalEdgeStyle;rounded=0;orthogonalLoop=1;jettySize=auto;html=1;exitX=0.5;exitY=0;exitDx=0;exitDy=0;entryX=1;entryY=0.5;entryDx=0;entryDy=0;" edge="1" parent="1" source="iZ8uWK1BLbyBL1zNR7Qy-141" target="iZ8uWK1BLbyBL1zNR7Qy-146">
          <mxGeometry relative="1" as="geometry" />
        </mxCell>
        <mxCell id="iZ8uWK1BLbyBL1zNR7Qy-141" value="&lt;div&gt;i = i+1&lt;/div&gt;" style="rounded=1;whiteSpace=wrap;html=1;" vertex="1" parent="1">
          <mxGeometry x="-234.5" y="-416.5" width="63" height="25" as="geometry" />
        </mxCell>
        <mxCell id="iZ8uWK1BLbyBL1zNR7Qy-142" value="" style="ellipse;html=1;shape=endState;fillColor=#000000;strokeColor=#ff0000;" vertex="1" parent="1">
          <mxGeometry x="-485.5" y="-468" width="30" height="30" as="geometry" />
        </mxCell>
        <mxCell id="iZ8uWK1BLbyBL1zNR7Qy-143" value="[sonst]" style="edgeLabel;html=1;align=center;verticalAlign=middle;resizable=0;points=[];" vertex="1" connectable="0" parent="1">
          <mxGeometry x="-271.4035483870968" y="-406.5" as="geometry">
            <mxPoint x="-90" y="-59" as="offset" />
          </mxGeometry>
        </mxCell>
        <mxCell id="iZ8uWK1BLbyBL1zNR7Qy-144" style="edgeStyle=orthogonalEdgeStyle;rounded=0;orthogonalLoop=1;jettySize=auto;html=1;exitX=0;exitY=0.5;exitDx=0;exitDy=0;entryX=1;entryY=0.5;entryDx=0;entryDy=0;" edge="1" parent="1" target="iZ8uWK1BLbyBL1zNR7Qy-142">
          <mxGeometry relative="1" as="geometry">
            <mxPoint x="-313.9999999999998" y="-453" as="sourcePoint" />
            <mxPoint x="-426.5" y="-452.5" as="targetPoint" />
          </mxGeometry>
        </mxCell>
        <mxCell id="iZ8uWK1BLbyBL1zNR7Qy-145" style="edgeStyle=orthogonalEdgeStyle;rounded=0;orthogonalLoop=1;jettySize=auto;html=1;exitX=0.5;exitY=1;exitDx=0;exitDy=0;entryX=0.5;entryY=0;entryDx=0;entryDy=0;" edge="1" parent="1" source="iZ8uWK1BLbyBL1zNR7Qy-146" target="iZ8uWK1BLbyBL1zNR7Qy-150">
          <mxGeometry relative="1" as="geometry" />
        </mxCell>
        <mxCell id="iZ8uWK1BLbyBL1zNR7Qy-146" value="" style="rhombus;whiteSpace=wrap;html=1;" vertex="1" parent="1">
          <mxGeometry x="-314" y="-469.5" width="33" height="33" as="geometry" />
        </mxCell>
        <mxCell id="iZ8uWK1BLbyBL1zNR7Qy-147" value="&lt;span style=&quot;font-size: 11px;&quot;&gt;[i &amp;lt; numbersFlagged.length]&lt;/span&gt;" style="text;html=1;align=center;verticalAlign=middle;resizable=0;points=[];autosize=1;strokeColor=none;fillColor=none;" vertex="1" parent="1">
          <mxGeometry x="-431.5" y="-425" width="155" height="26" as="geometry" />
        </mxCell>
        <mxCell id="iZ8uWK1BLbyBL1zNR7Qy-148" style="edgeStyle=orthogonalEdgeStyle;rounded=0;orthogonalLoop=1;jettySize=auto;html=1;exitX=1;exitY=0.5;exitDx=0;exitDy=0;entryX=0.5;entryY=1;entryDx=0;entryDy=0;" edge="1" parent="1" source="iZ8uWK1BLbyBL1zNR7Qy-150" target="iZ8uWK1BLbyBL1zNR7Qy-141">
          <mxGeometry relative="1" as="geometry" />
        </mxCell>
        <mxCell id="iZ8uWK1BLbyBL1zNR7Qy-149" style="edgeStyle=orthogonalEdgeStyle;rounded=0;orthogonalLoop=1;jettySize=auto;html=1;exitX=0.5;exitY=1;exitDx=0;exitDy=0;" edge="1" parent="1" source="iZ8uWK1BLbyBL1zNR7Qy-150">
          <mxGeometry relative="1" as="geometry">
            <mxPoint x="-297.6428571428571" y="-265.6428571428571" as="targetPoint" />
          </mxGeometry>
        </mxCell>
        <mxCell id="iZ8uWK1BLbyBL1zNR7Qy-150" value="" style="rhombus;whiteSpace=wrap;html=1;" vertex="1" parent="1">
          <mxGeometry x="-313.99" y="-365.5" width="33" height="33" as="geometry" />
        </mxCell>
        <mxCell id="iZ8uWK1BLbyBL1zNR7Qy-151" value="[sonst]" style="text;html=1;align=center;verticalAlign=middle;resizable=0;points=[];autosize=1;strokeColor=none;fillColor=none;" vertex="1" parent="1">
          <mxGeometry x="-274.5" y="-373.5" width="53" height="26" as="geometry" />
        </mxCell>
        <mxCell id="iZ8uWK1BLbyBL1zNR7Qy-152" value="&lt;span style=&quot;color: rgb(0, 0, 0); font-family: Helvetica; font-size: 11px; font-style: normal; font-variant-ligatures: normal; font-variant-caps: normal; font-weight: 400; letter-spacing: normal; orphans: 2; text-align: center; text-indent: 0px; text-transform: none; widows: 2; word-spacing: 0px; -webkit-text-stroke-width: 0px; white-space: nowrap; background-color: rgb(255, 255, 255); text-decoration-thickness: initial; text-decoration-style: initial; text-decoration-color: initial; display: inline !important; float: none;&quot;&gt;[numbersFlagged[i] == true]&lt;/span&gt;" style="text;whiteSpace=wrap;html=1;" vertex="1" parent="1">
          <mxGeometry x="-292.5028571428571" y="-324.49571428571426" width="163" height="36" as="geometry" />
        </mxCell>
        <mxCell id="iZ8uWK1BLbyBL1zNR7Qy-169" style="edgeStyle=orthogonalEdgeStyle;rounded=0;orthogonalLoop=1;jettySize=auto;html=1;exitX=0;exitY=0.5;exitDx=0;exitDy=0;entryX=0;entryY=0.5;entryDx=0;entryDy=0;" edge="1" parent="1" source="iZ8uWK1BLbyBL1zNR7Qy-154" target="iZ8uWK1BLbyBL1zNR7Qy-150">
          <mxGeometry relative="1" as="geometry">
            <Array as="points">
              <mxPoint x="-410.5" y="-244.5" />
              <mxPoint x="-410.5" y="-348.5" />
            </Array>
          </mxGeometry>
        </mxCell>
        <mxCell id="iZ8uWK1BLbyBL1zNR7Qy-154" value="&lt;div&gt;Ausgabe des Array-Index als Primzahl&lt;/div&gt;" style="rounded=1;whiteSpace=wrap;html=1;" vertex="1" parent="1">
          <mxGeometry x="-369.54" y="-262" width="147.09" height="34" as="geometry" />
        </mxCell>
        <mxCell id="iZ8uWK1BLbyBL1zNR7Qy-158" value="&lt;span style=&quot;color: rgba(0, 0, 0, 0); font-family: monospace; font-size: 0px; text-align: start;&quot;&gt;[]%3CmxGraphModel%3E%3Croot%3E%3CmxCell%20id%3D%220%22%2F%3E%3CmxCell%20id%3D%221%22%20parent%3D%220%22%2F%3E%3CmxCell%20id%3D%222%22%20value%3D%22%22%20style%3D%22rhombus%3BwhiteSpace%3Dwrap%3Bhtml%3D1%3B%22%20vertex%3D%221%22%20parent%3D%221%22%3E%3CmxGeometry%20x%3D%22-268%22%20y%3D%22186%22%20width%3D%2233%22%20height%3D%2233%22%20as%3D%22geometry%22%2F%3E%3C%2FmxCell%3E%3C%2Froot%3E%3C%2FmxGraphModel%3E&lt;/span&gt;" style="text;html=1;align=center;verticalAlign=middle;resizable=0;points=[];autosize=1;strokeColor=none;fillColor=none;" vertex="1" parent="1">
          <mxGeometry x="-379.5" y="-225.5" width="18" height="26" as="geometry" />
        </mxCell>
        <mxCell id="iZ8uWK1BLbyBL1zNR7Qy-165" value="" style="rounded=1;whiteSpace=wrap;html=1;fillColor=none;" vertex="1" parent="1">
          <mxGeometry x="-496" y="-696" width="397" height="503.5" as="geometry" />
        </mxCell>
        <mxCell id="iZ8uWK1BLbyBL1zNR7Qy-168" style="rounded=0;orthogonalLoop=1;jettySize=auto;html=1;entryX=1;entryY=0.5;entryDx=0;entryDy=0;endArrow=none;endFill=0;dashed=1;" edge="1" parent="1" source="iZ8uWK1BLbyBL1zNR7Qy-166" target="iZ8uWK1BLbyBL1zNR7Qy-38">
          <mxGeometry relative="1" as="geometry" />
        </mxCell>
        <mxCell id="iZ8uWK1BLbyBL1zNR7Qy-166" value="mit 2 beginnen um die ersten 3 Zahlen, 0,1,2 zu überspringen" style="shape=note;whiteSpace=wrap;html=1;backgroundOutline=1;darkOpacity=0.05;fillColor=#fff2cc;strokeColor=#d6b656;" vertex="1" parent="1">
          <mxGeometry x="-722.5" y="-708.5" width="175" height="68" as="geometry" />
        </mxCell>
        <mxCell id="iZ8uWK1BLbyBL1zNR7Qy-171" style="rounded=0;orthogonalLoop=1;jettySize=auto;html=1;exitX=0.5;exitY=1;exitDx=0;exitDy=0;exitPerimeter=0;entryX=0;entryY=0.5;entryDx=0;entryDy=0;endArrow=none;endFill=0;dashed=1;" edge="1" parent="1" source="iZ8uWK1BLbyBL1zNR7Qy-170" target="iZ8uWK1BLbyBL1zNR7Qy-3">
          <mxGeometry relative="1" as="geometry" />
        </mxCell>
        <mxCell id="iZ8uWK1BLbyBL1zNR7Qy-173" style="rounded=0;orthogonalLoop=1;jettySize=auto;html=1;exitX=0.5;exitY=1;exitDx=0;exitDy=0;exitPerimeter=0;entryX=0;entryY=0.5;entryDx=0;entryDy=0;dashed=1;endArrow=none;endFill=0;" edge="1" parent="1" source="iZ8uWK1BLbyBL1zNR7Qy-170" target="G8UXR2RvoSNgQStM8z7o-14">
          <mxGeometry relative="1" as="geometry" />
        </mxCell>
        <mxCell id="iZ8uWK1BLbyBL1zNR7Qy-174" style="rounded=0;orthogonalLoop=1;jettySize=auto;html=1;exitX=0.5;exitY=1;exitDx=0;exitDy=0;exitPerimeter=0;entryX=0;entryY=0.5;entryDx=0;entryDy=0;endArrow=none;endFill=0;dashed=1;" edge="1" parent="1" source="iZ8uWK1BLbyBL1zNR7Qy-170" target="iZ8uWK1BLbyBL1zNR7Qy-4">
          <mxGeometry relative="1" as="geometry" />
        </mxCell>
        <mxCell id="iZ8uWK1BLbyBL1zNR7Qy-170" value="separates&amp;nbsp;&lt;div&gt;Aktivitätsdiagramm&lt;/div&gt;" style="shape=note;whiteSpace=wrap;html=1;backgroundOutline=1;darkOpacity=0.05;fillColor=#fff2cc;strokeColor=#d6b656;" vertex="1" parent="1">
          <mxGeometry x="-2319" y="-614" width="175" height="68" as="geometry" />
        </mxCell>
      </root>
    </mxGraphModel>
  </diagram>
</mxfile>
